<svg xmlns="http://www.w3.org/2000/svg" xmlns:svg="http://www.w3.org/2000/svg" xmlns:xlink="http://www.w3.org/1999/xlink" version="1.0" height="616pt" width="985.797pt" viewBox="250 582 993.797 622" ><defs><style type="text/css">
            @font-face {
                font-family: 'noto_regular';
                src: url('https://app.creately.com/diagram/assets/fonts/noto/noto-regular.woff') format('woff'),
                     url('https://app.creately.com/diagram/assets/fonts/noto/noto-regular.woff2') format('woff2');
                font-weight: normal;
                font-style: normal;
            }
        p {
            margin: 0;
        }
        </style></defs><defs><style>
            span{ display: inline-block; }
        </style></defs><g id="2qyo623e7z"><g transform="translate(1200 805)"><ellipse cx="20.3985" cy="10.10075" rx="10.19925" ry="10.10075" fill="rgba(255,255,255,1)" stroke="#5e5ca7" stroke-width="1.5" stroke-linecap="round" stroke-linejoin="round"/><path d="M 20.3985,20.2015 L 20.3985,48.483599999999996 L 40.797,80.806 M 20.3985,48.483599999999996 L 0,80.806 M 2.03985,30.30225 L 38.757149999999996,30.30225" fill="none" stroke="#5e5ca7" stroke-width="1.5" stroke-linecap="round" stroke-linejoin="round"/><rect x="0" y="0" width="40.797" height="80.806" fill="rgba(255,255,255,0.01)" stroke="rgba(255,255,255,0.01)" stroke-width="1.5" stroke-linecap="round" stroke-linejoin="round"/></g><g transform="translate(1206.8985, 890.806) rotate(0, 13.5, 0)" width="27" height="34"><text text-decoration="none" x="1.5" fill="rgb(0, 0, 0)" font-size="9pt" font-family="Arial"  y="11">User</text><text text-decoration="none" x="25.5" fill="rgb(0, 0, 0)" font-size="9pt" font-family="Arial"  y="11"></text><text text-decoration="none" x="13.5" fill="#4b4b4b" font-size="10pt" font-family="noto_regular"  y="30"></text></g></g><g id="3mzdw56wxi"><g transform="translate(255 805)"><ellipse cx="20.3985" cy="10.10075" rx="10.19925" ry="10.10075" fill="rgba(255,255,255,1)" stroke="#5e5ca7" stroke-width="1.5" stroke-linecap="round" stroke-linejoin="round"/><path d="M 20.3985,20.2015 L 20.3985,48.483599999999996 L 40.797,80.806 M 20.3985,48.483599999999996 L 0,80.806 M 2.03985,30.30225 L 38.757149999999996,30.30225" fill="none" stroke="#5e5ca7" stroke-width="1.5" stroke-linecap="round" stroke-linejoin="round"/><rect x="0" y="0" width="40.797" height="80.806" fill="rgba(255,255,255,0.01)" stroke="rgba(255,255,255,0.01)" stroke-width="1.5" stroke-linecap="round" stroke-linejoin="round"/></g><g transform="translate(255.8985, 890.806) rotate(0, 19.5, 0)" width="39" height="19"><text text-decoration="none" x="1.5" fill="rgb(0, 0, 0)" font-size="9pt" font-family="Arial"  y="15">Admin</text><text text-decoration="none" x="37.5" fill="#4b4b4b" font-size="10pt" font-family="noto_regular"  y="15"></text></g></g><g id="qztih8wu8a"><g transform="translate(695 585)"><ellipse cx="65.4999988079071" cy="37.999998331069946" rx="65.4999988079071" ry="37.999998331069946" fill="rgba(255,255,255,1)" stroke="#5e5ca7" stroke-width="1.5" stroke-linecap="round" stroke-linejoin="round"/></g><g transform="translate(716.9999988079071, 605.99999833107) rotate(0, 43.5, 17)" width="87" height="34"><text text-decoration="none" x="4" fill="rgb(0, 0, 0)" font-size="9pt" font-family="Arial"  y="11">Login&#160;</text><text text-decoration="none" x="37" fill="rgb(0, 0, 0)" font-size="9pt" font-family="Arial"  y="11">/&#160;</text><text text-decoration="none" x="45" fill="rgb(0, 0, 0)" font-size="9pt" font-family="Arial"  y="11">Logout</text><text text-decoration="none" x="83" fill="rgb(0, 0, 0)" font-size="9pt" font-family="Arial"  y="11"></text><text text-decoration="none" x="43.5" fill="#4b4b4b" font-size="10pt" font-family="noto_regular"  y="30"></text></g></g><g id="1js8de5k9r"><g transform="translate(420 800)"><ellipse cx="62.38017147779465" cy="37.999998331069946" rx="62.38017147779465" ry="37.999998331069946" fill="rgba(255,255,255,1)" stroke="#5e5ca7" stroke-width="1.5" stroke-linecap="round" stroke-linejoin="round"/></g><g transform="translate(444.38017147779465, 820.99999833107) rotate(0, 38, 17)" width="76" height="34"><text text-decoration="none" x="16" fill="rgb(0, 0, 0)" font-size="9pt" font-family="Arial"  y="11">Manage&#160;</text><text text-decoration="none" x="4" fill="rgb(0, 0, 0)" font-size="9pt" font-family="Arial"  y="30">membership</text><text text-decoration="none" x="72" fill="#4b4b4b" font-size="10pt" font-family="noto_regular"  y="30"></text></g></g><g id="gm5slmcoyx"><g transform="translate(425 890)"><ellipse cx="45.5" cy="30.5" rx="45.5" ry="30.5" fill="rgba(255,255,255,1)" stroke="#5e5ca7" stroke-width="1.5" stroke-linecap="round" stroke-linejoin="round"/></g><g transform="translate(447, 903.5) rotate(0, 23.5, 17)" width="47" height="34"><text text-decoration="none" x="1.5" fill="rgb(0, 0, 0)" font-size="9pt" font-family="Arial"  y="11">Manage&#160;</text><text text-decoration="none" x="3" fill="rgb(0, 0, 0)" font-size="9pt" font-family="Arial"  y="30">content</text><text text-decoration="none" x="44" fill="#4b4b4b" font-size="10pt" font-family="noto_regular"  y="30"></text></g></g><g id="3e1epjs13a"><g transform="translate(425 975)"><ellipse cx="45.5" cy="30.5" rx="45.5" ry="30.5" fill="rgba(255,255,255,1)" stroke="#5e5ca7" stroke-width="1.5" stroke-linecap="round" stroke-linejoin="round"/></g><g transform="translate(440.5, 988.5) rotate(0, 30, 17)" width="60" height="34"><text text-decoration="none" x="2" fill="rgb(0, 0, 0)" font-size="9pt" font-family="Arial"  y="11">Post&#160;</text><text text-decoration="none" x="30" fill="rgb(0, 0, 0)" font-size="9pt" font-family="Arial"  y="11">news</text><text text-decoration="none" x="58" fill="rgb(0, 0, 0)" font-size="9pt" font-family="Arial"  y="11"></text><text text-decoration="none" x="30" fill="#4b4b4b" font-size="10pt" font-family="noto_regular"  y="30"></text></g></g><g id="2f61gmnhr4"><g transform="translate(430 1060)"><ellipse cx="45.5" cy="30.5" rx="45.5" ry="30.5" fill="rgba(255,255,255,1)" stroke="#5e5ca7" stroke-width="1.5" stroke-linecap="round" stroke-linejoin="round"/></g><g transform="translate(441, 1081) rotate(0, 34.5, 9.5)" width="69" height="19"><text text-decoration="none" x="3" fill="rgb(0, 0, 0)" font-size="9pt" font-family="Arial"  y="15">Post&#160;</text><text text-decoration="none" x="31" fill="rgb(0, 0, 0)" font-size="9pt" font-family="Arial"  y="15">events</text><text text-decoration="none" x="66" fill="#4b4b4b" font-size="10pt" font-family="noto_regular"  y="15"></text></g></g><g id="3e5y5i67yj"><g transform="translate(590 975)"><ellipse cx="45.5" cy="30.5" rx="45.5" ry="30.5" fill="rgba(255,255,255,1)" stroke="#5e5ca7" stroke-width="1.5" stroke-linecap="round" stroke-linejoin="round"/></g><g transform="translate(594.5, 996) rotate(0, 41, 9.5)" width="82" height="19"><text text-decoration="none" x="3.5" fill="rgb(0, 0, 0)" font-size="9pt" font-family="Arial"  y="15">Manage&#160;</text><text text-decoration="none" x="50.5" fill="rgb(0, 0, 0)" font-size="9pt" font-family="Arial"  y="15">news</text><text text-decoration="none" x="78.5" fill="#4b4b4b" font-size="10pt" font-family="noto_regular"  y="15"></text></g></g><g id="25f2sl0t7d"><g transform="translate(585 1060)"><ellipse cx="45.5" cy="30.5" rx="45.5" ry="30.5" fill="rgba(255,255,255,1)" stroke="#5e5ca7" stroke-width="1.5" stroke-linecap="round" stroke-linejoin="round"/></g><g transform="translate(585, 1081) rotate(0, 45.5, 9.5)" width="91" height="19"><text text-decoration="none" x="4.5" fill="rgb(0, 0, 0)" font-size="9pt" font-family="Arial"  y="15">Manage&#160;</text><text text-decoration="none" x="51.5" fill="rgb(0, 0, 0)" font-size="9pt" font-family="Arial"  y="15">events</text><text text-decoration="none" x="86.5" fill="#4b4b4b" font-size="10pt" font-family="noto_regular"  y="15"></text></g></g><g id="1kak2x4edz"><g transform="translate(923.7000000000002 795.7000000000002)"><ellipse cx="58.721771240234375" cy="37.621212005615234" rx="58.721771240234375" ry="37.621212005615234" fill="rgba(255,255,255,1)" stroke="#5e5ca7" stroke-width="1.5" stroke-linecap="round" stroke-linejoin="round"/></g><g transform="translate(935.4217712402346, 808.8212120056154) rotate(0, 47, 24.5)" width="94" height="49"><text text-decoration="none" x="3.5" fill="rgb(0, 0, 0)" font-size="9pt" font-family="Arial"  y="11">Make&#160;</text><text text-decoration="none" x="35.5" fill="rgb(0, 0, 0)" font-size="9pt" font-family="Arial"  y="11">/&#160;</text><text text-decoration="none" x="43.5" fill="rgb(0, 0, 0)" font-size="9pt" font-family="Arial"  y="11">organize&#160;</text><text text-decoration="none" x="28.5" fill="rgb(0, 0, 0)" font-size="9pt" font-family="Arial"  y="26">friends</text><text text-decoration="none" x="65.5" fill="rgb(0, 0, 0)" font-size="9pt" font-family="Arial"  y="26"></text><text text-decoration="none" x="47" fill="#4b4b4b" font-size="10pt" font-family="noto_regular"  y="45"></text></g></g><g id="2owey8hyza"><g transform="translate(945 895)"><ellipse cx="45.5" cy="30.5" rx="45.5" ry="30.5" fill="rgba(255,255,255,1)" stroke="#5e5ca7" stroke-width="1.5" stroke-linecap="round" stroke-linejoin="round"/></g><g transform="translate(956, 908.5) rotate(0, 34.5, 17)" width="69" height="34"><text text-decoration="none" x="4" fill="rgb(0, 0, 0)" font-size="9pt" font-family="Arial"  y="11">User&#160;</text><text text-decoration="none" x="31" fill="rgb(0, 0, 0)" font-size="9pt" font-family="Arial"  y="11">profile</text><text text-decoration="none" x="65" fill="rgb(0, 0, 0)" font-size="9pt" font-family="Arial"  y="11"></text><text text-decoration="none" x="34.5" fill="#4b4b4b" font-size="10pt" font-family="noto_regular"  y="30"></text></g></g><g id="14tg7r02pn"><g transform="translate(800 895)"><ellipse cx="45.5" cy="30.5" rx="45.5" ry="30.5" fill="rgba(255,255,255,1)" stroke="#5e5ca7" stroke-width="1.5" stroke-linecap="round" stroke-linejoin="round"/></g><g transform="translate(812.5, 916) rotate(0, 33, 9.5)" width="66" height="19"><text text-decoration="none" x="4" fill="rgb(0, 0, 0)" font-size="9pt" font-family="Arial"  y="15">Edit&#160;</text><text text-decoration="none" x="28" fill="rgb(0, 0, 0)" font-size="9pt" font-family="Arial"  y="15">profile</text><text text-decoration="none" x="62" fill="#4b4b4b" font-size="10pt" font-family="noto_regular"  y="15"></text></g></g><g id="2af7e14iad"><g transform="translate(945 980)"><ellipse cx="45.5" cy="30.5" rx="45.5" ry="30.5" fill="rgba(255,255,255,1)" stroke="#5e5ca7" stroke-width="1.5" stroke-linecap="round" stroke-linejoin="round"/></g><g transform="translate(954.5, 1001) rotate(0, 36, 9.5)" width="72" height="19"><text text-decoration="none" x="4" fill="rgb(0, 0, 0)" font-size="9pt" font-family="Arial"  y="15">View&#160;</text><text text-decoration="none" x="33" fill="rgb(0, 0, 0)" font-size="9pt" font-family="Arial"  y="15">events</text><text text-decoration="none" x="68" fill="#4b4b4b" font-size="10pt" font-family="noto_regular"  y="15"></text></g></g><g id="7izwk4q5dk"><g transform="translate(945 1060)"><ellipse cx="45.5" cy="30.5" rx="45.5" ry="30.5" fill="rgba(255,255,255,1)" stroke="#5e5ca7" stroke-width="1.5" stroke-linecap="round" stroke-linejoin="round"/></g><g transform="translate(967, 1081) rotate(0, 23.5, 9.5)" width="47" height="19"><text text-decoration="none" x="2" fill="rgb(0, 0, 0)" font-size="9pt" font-family="Arial"  y="15">Chating</text><text text-decoration="none" x="45" fill="#4b4b4b" font-size="10pt" font-family="noto_regular"  y="15"></text></g></g><g id="5btbmsriy9"><g transform="translate(945 1140)"><ellipse cx="45.5" cy="30.5" rx="45.5" ry="30.5" fill="rgba(255,255,255,1)" stroke="#5e5ca7" stroke-width="1.5" stroke-linecap="round" stroke-linejoin="round"/></g><g transform="translate(963, 1153.5) rotate(0, 27.5, 17)" width="55" height="34"><text text-decoration="none" x="7" fill="rgb(0, 0, 0)" font-size="9pt" font-family="Arial"  y="11">Provide&#160;</text><text text-decoration="none" x="3" fill="rgb(0, 0, 0)" font-size="9pt" font-family="Arial"  y="30">feedback</text><text text-decoration="none" x="52" fill="#4b4b4b" font-size="10pt" font-family="noto_regular"  y="30"></text></g></g><g id="cl8zw53g8m"><g><path d="M 295,845 L 420,840" fill="none" stroke="#5e5ca7" stroke-width="1.5" stroke-linecap="round" stroke-linejoin="round"/><path d="M 420,840 L 411.08147979060885,834.6021426469051 L 411.5411122316209,846.0929536722057 Z" fill="rgb(94,92,167)" stroke="#5e5ca7" stroke-width="1.5" stroke-linecap="round" stroke-linejoin="round"/></g></g><g id="8kla99iwoq"><g><path d="M 295,845 L 425,920" fill="none" stroke="#5e5ca7" stroke-width="1.5" stroke-linecap="round" stroke-linejoin="round"/><path d="M 425,920 L 420.34135553322943,910.6740202411808 L 414.5945473180993,920.6351544807396 Z" fill="rgb(94,92,167)" stroke="#5e5ca7" stroke-width="1.5" stroke-linecap="round" stroke-linejoin="round"/></g></g><g id="1j9j3eloxn"><g><path d="M 295,845 L 425,1005" fill="none" stroke="#5e5ca7" stroke-width="1.5" stroke-linecap="round" stroke-linejoin="round"/><path d="M 425,1005 L 423.9792413694123,994.6252750133915 L 415.05393036807527,1001.8770902019778 Z" fill="rgb(94,92,167)" stroke="#5e5ca7" stroke-width="1.5" stroke-linecap="round" stroke-linejoin="round"/></g></g><g id="1woits6ojw"><g><path d="M 295,845 L 430,1090" fill="none" stroke="#5e5ca7" stroke-width="1.5" stroke-linecap="round" stroke-linejoin="round"/><path d="M 430,1090 L 430.8395069003661,1079.6090378263648 L 420.767366949249,1085.1589924933069 Z" fill="rgb(94,92,167)" stroke="#5e5ca7" stroke-width="1.5" stroke-linecap="round" stroke-linejoin="round"/></g></g><g id="1fi89lzipu"><g><path d="M 515,1005 L 590,1005" fill="none" stroke="#5e5ca7" stroke-width="1.5" stroke-linecap="round" stroke-linejoin="round"/><path d="M 590,1005 L 581.304347826087,999.25 L 581.304347826087,1010.75 Z" fill="rgb(94,92,167)" stroke="#5e5ca7" stroke-width="1.5" stroke-linecap="round" stroke-linejoin="round"/></g></g><g id="7qrgkpexin"><g><path d="M 520,1090 L 585,1090" fill="none" stroke="#5e5ca7" stroke-width="1.5" stroke-linecap="round" stroke-linejoin="round"/><path d="M 585,1090 L 576.304347826087,1084.25 L 576.304347826087,1095.75 Z" fill="rgb(94,92,167)" stroke="#5e5ca7" stroke-width="1.5" stroke-linecap="round" stroke-linejoin="round"/></g></g><g id="7ne7b10og5"><g><path d="M 295,845 L 695,625" fill="none" stroke="#5e5ca7" stroke-width="1.5" stroke-linecap="round" stroke-linejoin="round"/><path d="M 695,625 L 684.6096984177088,624.152356349215 L 690.1517640400887,634.2288392989964 Z" fill="rgb(94,92,167)" stroke="#5e5ca7" stroke-width="1.5" stroke-linecap="round" stroke-linejoin="round"/></g></g><g id="2kexw35hpt"><g><path d="M 1200,845 L 1038.7000000000003,835.7000000000002" fill="none" stroke="#5e5ca7" stroke-width="1.5" stroke-linecap="round" stroke-linejoin="round"/><path d="M 1038.7000000000003,835.7000000000002 L 1047.0502592948328,841.9409964299575 L 1047.7122101707619,830.4600634958334 Z" fill="rgb(94,92,167)" stroke="#5e5ca7" stroke-width="1.5" stroke-linecap="round" stroke-linejoin="round"/></g></g><g id="79yqyi69ic"><g><path d="M 1200,845 L 1035,925" fill="none" stroke="#5e5ca7" stroke-width="1.5" stroke-linecap="round" stroke-linejoin="round"/><path d="M 1035,925 L 1045.3330431598447,926.3802484509923 L 1040.315897834872,916.0323862182361 Z" fill="rgb(94,92,167)" stroke="#5e5ca7" stroke-width="1.5" stroke-linecap="round" stroke-linejoin="round"/></g></g><g id="4obym3zpwu"><g><path d="M 1200,845 L 1035,1010" fill="none" stroke="#5e5ca7" stroke-width="1.5" stroke-linecap="round" stroke-linejoin="round"/><path d="M 1035,1010 L 1045.2146186108362,1007.9171093728091 L 1037.0828906271909,999.785381389164 Z" fill="rgb(94,92,167)" stroke="#5e5ca7" stroke-width="1.5" stroke-linecap="round" stroke-linejoin="round"/></g></g><g id="1ozlud1z2p"><g><path d="M 1200,845 L 1035,1090" fill="none" stroke="#5e5ca7" stroke-width="1.5" stroke-linecap="round" stroke-linejoin="round"/><path d="M 1035,1090 L 1044.6266569350212,1085.9994571636978 L 1035.0881322733105,1079.5755527996887 Z" fill="rgb(94,92,167)" stroke="#5e5ca7" stroke-width="1.5" stroke-linecap="round" stroke-linejoin="round"/></g></g><g id="93sfocftwh"><g><path d="M 1200,845 L 1035,1170" fill="none" stroke="#5e5ca7" stroke-width="1.5" stroke-linecap="round" stroke-linejoin="round"/><path d="M 1035,1170 L 1044.0635392256452,1164.8493569882132 L 1033.8093713791761,1159.643394850775 Z" fill="rgb(94,92,167)" stroke="#5e5ca7" stroke-width="1.5" stroke-linecap="round" stroke-linejoin="round"/></g></g><g id="1gx1a5n62t"><g><path d="M 1200,845 L 825,625" fill="none" stroke="#5e5ca7" stroke-width="1.5" stroke-linecap="round" stroke-linejoin="round"/><path d="M 825,625 L 829.5906325564289,634.359645263659 L 835.4098005873318,624.4406088473472 Z" fill="rgb(94,92,167)" stroke="#5e5ca7" stroke-width="1.5" stroke-linecap="round" stroke-linejoin="round"/></g></g><g id="1hfeezj78k"><g><path d="M 945,925 L 890,925" fill="none" stroke="#5e5ca7" stroke-width="1.5" stroke-linecap="round" stroke-linejoin="round"/><path d="M 890,925 L 898.695652173913,930.75 L 898.695652173913,919.25 Z" fill="rgb(94,92,167)" stroke="#5e5ca7" stroke-width="1.5" stroke-linecap="round" stroke-linejoin="round"/></g></g></svg>